<svg width="84" height="84" viewBox="0 0 84 84" fill="none" xmlns="http://www.w3.org/2000/svg">
  <path d="M55.8582 8.95917C49.4582 11.2592 45.4582 19.1592 45.4582 26.6592C45.4582 30.0592 46.1582 33.3592 47.2582 36.0592C48.0582 37.9592 48.9582 39.4592 50.0582 40.7592C46.0582 41.2592 42.5582 43.6592 39.8582 46.8592C37.1582 43.6592 33.5582 41.2592 29.6582 40.7592C30.7582 39.4592 31.6582 37.8592 32.4582 36.0592C33.5582 33.3592 34.2582 30.0592 34.2582 26.6592C34.2582 19.1592 30.2582 11.2592 23.8582 8.95917C25.8582 17.9592 18.6582 26.3592 14.1582 29.6592C9.85815 32.8592 0.958154 37.9592 1.15815 47.4592C1.15815 50.2592 2.15815 52.8592 3.85815 55.1592C3.95815 55.2592 3.95815 55.3592 4.05815 55.4592C4.15815 55.5592 4.25815 55.7592 4.35815 55.8592C5.15815 56.8592 6.05815 57.6592 7.05815 58.4592C7.15815 58.5592 7.35815 58.6592 7.45815 58.7592C8.35815 59.3592 9.35815 59.9592 10.3582 60.3592C10.5582 60.4592 10.7582 60.5592 10.9582 60.5592C12.8582 61.2592 14.9582 61.5592 17.0582 61.5592C23.8582 61.5592 30.6582 59.2592 37.1582 53.6592C38.0582 52.8592 38.9582 51.9592 39.8582 50.9592C40.7582 51.9592 41.6582 52.8592 42.5582 53.6592C49.0582 59.2592 55.8582 61.5592 62.6582 61.5592C64.7582 61.5592 66.8582 61.2592 68.7582 60.5592C68.9582 60.4592 69.1582 60.4592 69.3582 60.3592C70.3582 59.9592 71.3582 59.3592 72.2582 58.7592C72.4582 58.6592 72.5582 58.5592 72.6582 58.4592C73.6582 57.7592 74.5582 56.8592 75.3582 55.8592C75.4582 55.7592 75.5582 55.6592 75.6582 55.4592C75.7582 55.3592 75.7582 55.2592 75.8582 55.1592C77.5582 52.8592 78.5582 50.1592 78.5582 47.4592C78.7582 37.9592 69.8582 32.8592 65.5582 29.6592C61.0582 26.3592 53.8582 17.9592 55.8582 8.95917Z" fill="#6A9447"/>
  <path d="M39.9584 60.3584C39.9584 60.3584 37.9584 65.5584 38.0584 68.6584C38.0584 69.7584 38.0584 70.8584 37.2584 71.9584C37.0584 72.2584 37.3584 72.5584 37.5584 72.5584L37.6584 72.6584C37.6584 72.6584 38.3584 72.9584 38.4584 73.4584C38.7584 76.3584 38.4584 80.0584 41.0584 82.5584L41.3584 82.8584C41.6584 83.1584 42.0584 83.0584 42.3584 82.6584C43.7584 81.1584 48.5584 79.0584 50.9584 75.4584C52.0584 73.8584 52.2584 72.6584 52.3584 71.5584C52.3584 71.4584 52.4584 71.3584 52.5584 71.2584C52.6584 71.1584 52.7584 71.1584 52.8584 71.2584C55.2584 72.9584 55.8584 74.8584 55.3584 77.1584C55.2584 77.4584 55.6584 77.7584 55.8584 77.5584C56.9584 76.4584 58.1584 75.9584 59.2584 75.6584L59.3584 75.6584C59.5584 75.5584 59.7584 75.3584 59.6584 75.0584C59.3584 74.2584 59.0584 71.3584 57.0584 70.5584C54.2584 69.4584 52.2584 65.8584 48.3584 62.3584C44.3584 58.8584 40.0584 60.3584 40.0584 60.3584H39.9584Z" fill="#6A9447"/>
</svg> 