<svg width="150" height="48" viewBox="0 0 150 48" fill="none" xmlns="http://www.w3.org/2000/svg">
  <path d="M23.8789 5.73828C23.8789 5.12889 24.0137 4.59961 24.2832 4.14062C24.5527 3.68164 24.9355 3.33008 25.4316 3.08594C25.9336 2.8418 26.502 2.71973 27.1367 2.71973C27.7773 2.71973 28.3457 2.8418 28.8418 3.08594C29.3438 3.33008 29.7266 3.68164 29.9902 4.14062C30.2598 4.59961 30.3945 5.12889 30.3945 5.73828C30.3945 6.34766 30.2598 6.87988 29.9902 7.33496C29.7266 7.79004 29.3438 8.14453 28.8418 8.39844C28.3457 8.64844 27.7773 8.77344 27.1367 8.77344C26.502 8.77344 25.9336 8.64844 25.4316 8.39844C24.9355 8.14453 24.5527 7.79004 24.2832 7.33496C24.0137 6.87988 23.8789 6.34766 23.8789 5.73828ZM24.3398 10.9766H29.9492V30H24.3398V10.9766Z" fill="#C68B7D"/>
  <path d="M32.7657 20.5547C32.7657 18.7344 33.0763 17.1172 33.6976 15.7031C34.325 14.2891 35.2189 13.1797 36.3794 12.375C37.5399 11.5703 38.9071 11.168 40.481 11.168C41.7454 11.168 42.8431 11.4141 43.774 11.9062C44.7111 12.3984 45.4286 13.043 45.9267 13.8398V11.4062H51.5361V30H45.9267V27.5664C45.4227 28.3633 44.7013 29.0078 43.7623 29.5C42.8294 29.9922 41.7278 30.2383 40.4575 30.2383C38.9071 30.2383 37.5438 29.8359 36.3794 29.0312C35.2189 28.2266 34.325 27.1172 33.6976 25.7031C33.0763 24.2891 32.7657 22.5771 32.7657 20.5547ZM45.9267 20.5547C45.9267 19.1172 45.5829 17.9844 44.8952 17.1562C44.2132 16.3281 43.3608 15.9141 42.3378 15.9141C41.3148 15.9141 40.4575 16.3281 39.7755 17.1562C39.0994 17.9844 38.7614 19.1172 38.7614 20.5547C38.7614 21.9922 39.0994 23.1289 39.7755 23.9648C40.4575 24.7969 41.3148 25.2129 42.3378 25.2129C43.3608 25.2129 44.2132 24.7969 44.8952 23.9648C45.5829 23.1289 45.9267 21.9922 45.9267 20.5547Z" fill="#C68B7D"/>
  <path d="M65.1387 29.7891C63.9668 29.7891 62.8906 29.6797 61.9102 29.4609C60.9297 29.2422 60.0273 28.9297 59.2031 28.5234C58.3789 28.1172 57.6328 27.6445 56.9648 27.1055L59.25 23.3438C59.7031 23.7812 60.2305 24.1562 60.832 24.4688C61.4336 24.7773 62.0625 25.0195 62.7188 25.1953C63.3828 25.3711 64.0312 25.459 64.6641 25.459C65.3828 25.459 65.9219 25.3359 66.2812 25.0898C66.6484 24.8359 66.832 24.5039 66.832 24.0938C66.832 23.6367 66.5938 23.2891 66.1172 23.0508C65.6406 22.8125 64.8867 22.5742 63.8555 22.3359C62.6445 22.0586 61.6133 21.75 60.7617 21.4102C59.9102 21.0703 59.1875 20.5547 58.5938 19.8633C58 19.1641 57.7031 18.2383 57.7031 17.0859C57.7031 15.1758 58.3633 13.6797 59.6836 12.5977C61.0039 11.5156 62.8203 10.9961 65.1328 11.0391C66.2031 11.0625 67.2539 11.2148 68.2852 11.4961C69.3164 11.7773 70.2539 12.1953 71.0977 12.75C71.9414 13.3047 72.6758 14.0039 73.3008 14.8477L70.875 18.2383C70.4688 17.7305 70.0117 17.3086 69.5039 16.9727C68.9961 16.6367 68.4609 16.3867 67.8984 16.2227C67.3359 16.0508 66.7812 15.9648 66.2344 15.9648C65.6406 15.9648 65.1719 16.0859 64.8281 16.3281C64.4844 16.5703 64.3125 16.8867 64.3125 17.2773C64.3125 17.7461 64.5625 18.1055 65.0625 18.3555C65.5625 18.6055 66.3516 18.8438 67.4297 19.0703C68.625 19.3125 69.625 19.6094 70.4297 19.9609C71.2344 20.3125 71.9102 20.8438 72.457 21.5547C73.0039 22.2656 73.2773 23.2148 73.2773 24.4023C73.2773 25.7461 72.9492 26.9023 72.293 27.8711C71.6367 28.8398 70.7031 29.5859 69.4922 30.1094C68.2812 30.6328 66.8281 30.8867 65.1387 30.8711C65.1387 30.8555 65.1387 29.7891 65.1387 29.7891Z" fill="#C68B7D"/>
  <path d="M75.3047 20.4141C75.3047 18.4922 75.7344 16.8203 76.5938 15.3984C77.4531 13.9766 78.6562 12.8828 80.2031 12.1172C81.75 11.3516 83.5195 10.9688 85.5117 10.9688C88.082 10.9688 90.1914 11.5938 91.8398 12.8438C93.4883 14.0938 94.5078 15.8359 94.8984 18.0703H88.9492C88.7031 17.25 88.2773 16.6172 87.6719 16.1719C87.0664 15.7266 86.3164 15.5039 85.4219 15.5039C84.1719 15.5039 83.2031 15.9297 82.5156 16.7812C81.8281 17.6328 81.4844 18.8555 81.4844 20.4492C81.4844 22.043 81.8281 23.2656 82.5156 24.1172C83.2031 24.9688 84.1719 25.3945 85.4219 25.3945C86.3164 25.3945 87.0664 25.1719 87.6719 24.7266C88.2773 24.2812 88.7031 23.6484 88.9492 22.8281H94.8984C94.5078 25.0625 93.4883 26.8047 91.8398 28.0547C90.1914 29.3047 88.082 29.9297 85.5117 29.9297C83.5195 29.9297 81.75 29.5469 80.2031 28.7812C78.6562 28.0156 77.4531 26.9219 76.5938 25.5C75.7344 24.0781 75.3047 22.3359 75.3047 20.4141Z" fill="#C68B7D"/>
  <path d="M95.4492 11.4062H102.363L106.043 23.0156H106.172L109.805 11.4062H116.625L110.125 29.8125H101.996L95.4492 11.4062Z" fill="#C68B7D"/>
  <path d="M130.371 20.8984C130.371 21.7188 130.312 22.4609 130.195 23.125H118.301C118.43 24.1328 118.781 24.9062 119.352 25.4453C119.93 25.9766 120.641 26.2422 121.484 26.2422C122.641 26.2422 123.473 25.7109 123.98 24.6484H129.895C129.645 25.8516 129.156 26.9258 128.43 27.8711C127.711 28.8164 126.789 29.5625 125.664 30.1094C124.539 30.6562 123.273 30.9297 121.867 30.9297C120.18 30.9297 118.672 30.5625 117.344 29.8281C116.016 29.0938 114.984 28.0352 114.25 26.6523C113.516 25.2695 113.148 23.6406 113.148 21.7656C113.148 19.8906 113.508 18.2617 114.227 16.8789C114.953 15.4961 115.977 14.4375 117.297 13.7031C118.617 12.9688 120.133 12.6016 121.844 12.6016C123.5 12.6016 124.984 12.957 126.297 13.668C127.609 14.3789 128.621 15.418 129.332 16.7852C130.051 18.1445 130.41 19.7109 130.41 21.4844C130.41 21.2969 130.371 21.0938 130.371 20.8984ZM125.125 20.0195C125.125 19.1445 124.812 18.4453 124.188 17.9219C123.562 17.3984 122.781 17.1367 121.844 17.1367C120.953 17.1367 120.199 17.3906 119.582 17.8984C118.973 18.4062 118.57 19.1133 118.375 20.0195H125.125Z" fill="#C68B7D"/>
</svg> 