<svg width="400" height="600" viewBox="0 0 400 600" fill="none" xmlns="http://www.w3.org/2000/svg">
  <!-- Flower Stems -->
  <path d="M200 500C200 400 230 350 250 300C270 250 240 200 220 150" stroke="#657459" stroke-width="2"/>
  <path d="M180 520C180 450 160 400 150 350C140 300 160 250 180 200" stroke="#657459" stroke-width="2"/>
  <path d="M230 510C230 460 250 430 270 380C290 330 270 280 250 230" stroke="#657459" stroke-width="2"/>
  
  <!-- Orchid Flowers -->
  <g transform="translate(220, 150) rotate(-15)">
    <path d="M0 0C10 -20 20 -25 30 -20C40 -15 40 0 30 10C20 20 10 20 0 10C-10 0 -10 -20 0 0Z" fill="#C0758C"/>
    <path d="M0 0C-5 -10 -2 -15 5 -18C12 -21 15 -15 15 -5C15 5 10 10 0 8C-10 6 -5 -10 0 0Z" fill="#FFFFFF"/>
  </g>
  
  <g transform="translate(180, 200) rotate(25)">
    <path d="M0 0C10 -20 20 -25 30 -20C40 -15 40 0 30 10C20 20 10 20 0 10C-10 0 -10 -20 0 0Z" fill="#C0758C"/>
    <path d="M0 0C-5 -10 -2 -15 5 -18C12 -21 15 -15 15 -5C15 5 10 10 0 8C-10 6 -5 -10 0 0Z" fill="#FFFFFF"/>
  </g>
  
  <g transform="translate(250, 230) rotate(-20)">
    <path d="M0 0C10 -20 20 -25 30 -20C40 -15 40 0 30 10C20 20 10 20 0 10C-10 0 -10 -20 0 0Z" fill="#C0758C"/>
    <path d="M0 0C-5 -10 -2 -15 5 -18C12 -21 15 -15 15 -5C15 5 10 10 0 8C-10 6 -5 -10 0 0Z" fill="#FFFFFF"/>
  </g>
  
  <!-- Pot with Plant -->
  <rect x="150" y="520" width="100" height="60" rx="5" fill="#A57664"/>
  <ellipse cx="200" cy="520" rx="50" ry="10" fill="#402E28"/>
  
  <!-- Small Round Bowl with Moss -->
  <ellipse cx="300" cy="550" rx="40" ry="15" fill="#836C64"/>
  <ellipse cx="300" cy="545" rx="35" ry="12" fill="#6A9447"/>
  
  <!-- Stones -->
  <circle cx="250" cy="550" r="10" fill="#455A51"/>
  <circle cx="270" cy="560" r="8" fill="#66A489"/>
  
  <!-- Wooden Shelf -->
  <rect x="100" y="570" width="250" height="20" fill="#836C64"/>
  <rect x="100" y="590" width="250" height="5" fill="#402E28"/>
</svg> 